<?xml version="1.0" encoding="UTF-8"?>
<svg width="66px" height="57px" viewBox="0 0 66 57" version="1.1" xmlns="http://www.w3.org/2000/svg" xmlns:xlink="http://www.w3.org/1999/xlink">
    <!-- Generator: Sketch 43.2 (39069) - http://www.bohemiancoding.com/sketch -->
    <title>paper-plane</title>
    <desc>Created with Sketch.</desc>
    <defs></defs>
    <g id="Page-1" stroke="none" stroke-width="1" fill="none" fill-rule="evenodd">
        <g id="Desktop-HD" transform="translate(-1330.000000, -953.000000)" fill-rule="nonzero">
            <g id="paper-plane" transform="translate(1330.000000, 953.000000)">
                <path d="M19.284375,52.5626795 L28.7549883,42.1990432 L26.7262617,36.8769273 C26.7262617,36.8769273 20.6247422,37.7406068 20.4527812,38.2587886 C20.2809492,38.7769705 19.7653242,45.6860182 19.6793437,46.8951955 C19.5934922,48.1041136 19.284375,52.5626795 19.284375,52.5626795" id="Shape" fill="#5C546A"></path>
                <path d="M65.7117656,0.317386364 C65.4257227,0.0198204545 64.9927266,-0.0773386364 64.6100039,0.0643840909 L0.672503906,23.9007477 C0.281789062,24.0464864 0.0168867187,24.4138773 0.0007734375,24.8323091 C-0.0153398438,25.2507409 0.220300781,25.6379523 0.599027344,25.8134864 L12.1009453,31.14765 C12.9952969,31.5631023 13.6448555,32.3905091 13.8382148,33.3610636 L17.5513594,52.0211795 C17.6369531,52.4493273 17.9803594,52.7782432 18.4103906,52.8430159 C18.833332,52.9042909 19.2633633,52.6937795 19.4709023,52.3091591 L25.3331719,41.3686568 C25.4922422,41.0716091 25.7742891,40.8757364 26.1066094,40.8322091 C26.4420234,40.7886818 26.7611953,40.9035886 26.9907773,41.1494659 L41.5297266,56.673675 C41.727082,56.8836682 41.9990742,56.9996114 42.2809922,56.9996114 C42.3424805,56.9996114 42.4048711,56.9940409 42.4663594,56.9829 C42.8107969,56.9196818 43.0998047,56.6853341 43.2337383,56.3604341 L65.9212383,1.43316136 C66.0782461,1.05268636 65.9957461,0.614434091 65.7117656,0.317386364 Z" id="Shape" fill="#B9BBC1"></path>
                <path d="M65.2520859,0.0472840909 L13.048793,31.8610568 C13.4370586,32.2788409 13.7240039,32.7883432 13.8382148,33.3609341 L17.5513594,52.02105 C17.6369531,52.4491977 17.9803594,52.7781136 18.4103906,52.8428864 C18.833332,52.9041614 19.2633633,52.69365 19.4709023,52.3090295 L25.3331719,41.3685273 C25.3744219,41.2915773 25.4433867,41.2428682 25.4998477,41.1804273 C25.5043594,41.1576273 25.5087422,41.1349568 25.5087422,41.1349568 L65.7037734,0.311297727 C65.5762852,0.181234091 65.4192773,0.0956045455 65.2520859,0.0472840909 Z" id="Shape" fill="#8B8996"></path>
            </g>
        </g>
    </g>
</svg>