<?xml version="1.0" encoding="UTF-8"?>
<svg width="30px" height="30px" viewBox="0 0 30 30" version="1.1" xmlns="http://www.w3.org/2000/svg" xmlns:xlink="http://www.w3.org/1999/xlink">
    <!-- Generator: Sketch 43.2 (39069) - http://www.bohemiancoding.com/sketch -->
    <title>internet</title>
    <desc>Created with Sketch.</desc>
    <defs></defs>
    <g id="Page-1" stroke="none" stroke-width="1" fill="none" fill-rule="evenodd">
        <g id="Desktop-HD" transform="translate(-88.000000, -967.000000)" fill-rule="nonzero">
            <g id="internet" transform="translate(88.000000, 967.000000)">
                <circle id="Oval" fill="#2D404E" cx="15" cy="15" r="15"></circle>
                <path d="M30,15 C30,11.9904492 29.1138281,9.18802734 27.5879883,6.83935547 C27.5879883,6.83935547 26.7322852,8.08939453 26.8930664,8.89289063 C27.0537305,9.69650391 27.9978516,9.75785156 27.9008789,10.3473047 C27.8039063,10.9367578 27.1074609,10.1786133 26.2501758,11.7320508 C25.3929492,13.2856055 25.8217383,15.429082 27.0537305,15.5895117 C28.2857813,15.7498242 30,15 30,15 Z" id="Shape" fill="#48B19B"></path>
                <path d="M18.9392578,0.52265625 C20.6851758,0.9965625 22.3045312,1.77796875 23.7355664,2.80494141 C23.7355664,2.80494141 21.9962695,2.51806641 21.3373828,3.10716797 C20.6785547,3.69644531 19.7176758,5.08951172 18.9391992,3.10716797 C18.1608398,1.12494141 18.9392578,0.52265625 18.9392578,0.52265625 Z" id="Shape" fill="#48B19B"></path>
                <path d="M3.72181641,5.11048828 C6.47091797,1.97777344 10.5043945,0 15,0 C15,0 13.9823438,0.616171875 15.9108984,1.66078125 C17.8395117,2.70550781 16.9555078,3.18755859 16.5537305,3.50900391 C16.1520117,3.83044922 15.4551563,2.86617188 15,2.22339844 C14.5447852,1.58044922 12.5899219,0.589511719 11.0898047,1.12535156 C9.58974609,1.66119141 8.30431641,2.05699219 8.51841797,2.55550781 C8.73246094,3.05390625 11.3039063,2.08998047 12.2681836,2.14330078 C13.2324609,2.19673828 12.9110156,2.78589844 12.0004688,3.48240234 C11.0898047,4.17890625 10.9824609,5.03595703 11.9467969,5.57162109 C12.9110156,6.10751953 14.0893359,6.16113281 14.3575195,5.83974609 C14.6255273,5.51830078 13.8753516,3.42902344 15.6968555,4.33962891 C17.5183594,5.25023438 19.018418,5.78636719 17.5183594,7.12546875 C16.0182422,8.46445313 14.304082,9.96498047 14.2504102,10.8217969 C14.1967383,11.6787305 14.7863086,12.3757031 14.4648633,12.4290234 C14.143418,12.4823438 13.8483984,12.080918 13.6342383,11.7860742 C13.4201953,11.4914063 12.4289063,11.3844141 11.9467969,11.5717383 C11.4646289,11.7590625 10.5537891,12.4823438 11.0628516,13.1788477 C11.5719727,13.8754688 12.267832,13.5536133 12.9644531,13.8751172 C13.660957,14.1965625 14.3104688,15.4199414 14.1771094,15.6964453 C14.04375,15.972832 13.4500195,15.6228516 12.9644531,14.6787305 C12.4787695,13.7344922 11.5678711,14.3572852 10.9269727,14.1965625 C10.2860156,14.0358984 9.80384766,13.9287891 9.16095703,12.8037305 C8.51806641,11.6787891 7.18710938,11.3639648 6.64324219,10.7145117 C5.08529297,8.85416016 5.19673828,7.44667969 4.87535156,6.80384766 C4.55390625,6.16083984 3.72181641,5.11048828 3.72181641,5.11048828 Z" id="Shape" fill="#48B19B"></path>
                <path d="M16.4463867,15.2143359 C16.4463867,15.2143359 18.0535547,15.3747656 18.8571094,16.0713867 C19.6606641,16.7678906 19.7680078,17.0358984 21.0000586,17.3036719 C22.2321094,17.5713281 22.7679492,18.2675977 21.9643359,19.6070508 C21.1607813,20.9463281 19.7141016,23.0892773 19.017832,23.732168 C18.3216211,24.3751172 17.4643945,24.9107813 17.1429492,25.982168 C16.8215625,27.0534375 16.7142188,27.695918 17.4107227,28.1248242 C17.4107227,28.1248242 17.035957,29.0356641 16.1787305,27.8570508 C15.3214453,26.6783203 16.0179492,25.2856641 16.1787305,24.4820508 C16.3393945,23.6785547 16.7678906,21.2680664 16.5000586,20.6784961 C16.2324023,20.0891016 15,19.7139844 14.6785547,18.4820508 C14.3571094,17.2500586 14.919668,14.8525195 16.4463867,15.2143359 Z" id="Shape" fill="#48B19B"></path>
                <path d="M4.39335938,4.39353516 C10.2512695,-1.46449219 19.7485547,-1.464375 25.6065234,4.39353516 C31.4644922,10.2513281 31.4644922,19.7487305 25.606582,25.6066406 C25.606582,25.6066406 32.4121289,16.6072266 22.7769141,6.97201172 C13.1416406,-2.66326172 4.39335938,4.39353516 4.39335938,4.39353516 Z" id="Shape" fill="#253744" opacity="0.6"></path>
            </g>
        </g>
    </g>
</svg>