<?xml version="1.0" encoding="iso-8859-1"?>
<!-- Generator: Adobe Illustrator 19.0.0, SVG Export Plug-In . SVG Version: 6.00 Build 0)  -->
<svg version="1.1" id="Layer_1" xmlns="http://www.w3.org/2000/svg" xmlns:xlink="http://www.w3.org/1999/xlink" x="0px" y="0px"
	 viewBox="0 0 512 512" style="enable-background:new 0 0 512 512;" xml:space="preserve">
<circle style="fill:#FF2746;" cx="256" cy="256" r="256"/>
<path style="fill:#940030;" d="M410.393,165.841l-15.936,12.172l5.779-7.725l-244.795-9.095l-39.098,56.451l47.252,47.252
	l-21.373,8.04l3.97,91.031l145.36,145.563c120.987-16.812,214.914-118.165,220.194-242.479L410.393,165.841z"/>
<path style="fill:#366695;" d="M330.271,374.587H175.035c-24.573,0-44.565-19.992-44.565-44.566v-32.406
	c0-24.573,19.992-44.565,44.565-44.565h201.718c14.117,0,25.603-11.485,25.603-25.603v-32.408c0-14.117-11.485-25.603-25.603-25.603
	H221.517v-18.963h155.236c24.574,0,44.566,19.992,44.566,44.566v32.408c0,24.574-19.992,44.566-44.566,44.566H175.035
	c-14.115,0-25.602,11.485-25.602,25.602v32.408c0,14.117,11.485,25.603,25.602,25.603h155.236L330.271,374.587L330.271,374.587z"/>
<g>
	<rect x="256.569" y="355.624" style="fill:#263A7A;" width="73.695" height="18.963"/>
	<path style="fill:#263A7A;" d="M376.753,150.475H256.576v18.963h120.177c14.117,0,25.603,11.485,25.603,25.603v32.408
		c0,14.117-11.485,25.603-25.603,25.603H256.576v18.963h120.177c24.574,0,44.566-19.992,44.566-44.566v-32.408
		C421.317,170.467,401.327,150.475,376.753,150.475z"/>
</g>
<g>
	<path style="fill:#FFCCC5;" d="M310.862,343.564l100.831-33.611c7.366-2.455,14.974,3.027,14.974,10.793v92.015
		c0,7.764-7.608,13.248-14.974,10.793l-100.831-33.611c-4.646-1.548-7.778-5.896-7.778-10.793v-24.795
		C303.083,349.46,306.216,345.112,310.862,343.564z"/>
	<path style="fill:#FFCCC5;" d="M225.273,184.382l-100.831,33.611c-7.366,2.455-14.974-3.027-14.974-10.793v-92.015
		c0-7.764,7.608-13.248,14.974-10.793l100.831,33.611c4.646,1.548,7.778,5.896,7.778,10.793v24.795
		C233.051,178.486,229.919,182.834,225.273,184.382z"/>
</g>
<g>
</g>
<g>
</g>
<g>
</g>
<g>
</g>
<g>
</g>
<g>
</g>
<g>
</g>
<g>
</g>
<g>
</g>
<g>
</g>
<g>
</g>
<g>
</g>
<g>
</g>
<g>
</g>
<g>
</g>
</svg>
